#!OML:ASF H:\Terrain\Patient Classification 1\Animal1\Tuesday\Animal1.ASF
:FULLY-SPECIFIED
:DEGREES
967
root 11.4963 13.8898 -12.6389 -151.996 -161.356 -171.807
lowerback 35.0342 5.1137 5.98852
upperback 7.59095 8.4592 2.04359
thorax -8.66681 3.74289 -4.10527
lowerneck -8.28028 0.802521 -2.96551
upperneck -15.6277 0.774671 -4.85461
head -3.66415 0.723915 -1.10303
rclavicle 4.13472e-014 2.54444e-014
rhumerus 42.8963 22.1876 -31.7223
rradius 36.5818
rwrist -16.9664
rhand -23.4677 18.4918
rfingers 7.12502
rthumb 2.99138 -11.467
lclavicle 4.13472e-014 2.54444e-014
lhumerus -16.8546 18.7589 12.9986
lradius 34.2162
lwrist -11.8969
lhand 10.1113 59.318
lfingers 7.12502
lthumb 35.2319 -634.18
rfemur -86.6424 -18.2299 22.5995
rtibia 73.9105
rfoot -16.3603 -12.2336
rtoes -0.299365
lfemur -71.289 19.667 -15.2931
ltibia 47.9736
lfoot 4.5697 20.0831
ltoes -1.63452
968
root 11.6227 13.8061 -12.6054 -150.826 -161.311 -171.981
lowerback 35.7181 5.24421 6.11538
upperback 7.44151 8.72058 2.1842
thorax -8.95121 3.83093 -4.12709
lowerneck -6.80294 0.716213 -2.73469
upperneck -17.2123 0.505775 -4.85331
head -4.52095 0.634537 -1.18201
rclavicle 3.18055e-015 5.40694e-014
rhumerus 42.5491 22.0271 -33.6291
rradius 35.5971
rwrist -14.7493
rhand -22.561 18.5436
rfingers 7.12502
rthumb 3.86705 -11.4011
lclavicle 3.18055e-015 5.40694e-014
lhumerus -16.1079 17.1194 14.665
lradius 34.5163
lwrist -11.9581
lhand 10.2533 59.3926
lfingers 7.12502
lthumb 35.3666 -634.138
rfemur -88.3786 -18.2154 22.4335
rtibia 74.4855
rfoot -16.1976 -12.458
rtoes -1.4563
lfemur -73.8328 20.1673 -16.5799
ltibia 49.5694
lfoot 3.16271 19.3095
ltoes -1.69908
969
root 11.751 13.7094 -12.5706 -149.431 -161.474 -172.518
lowerback 36.5115 5.3208 6.65224
upperback 7.10095 9.09385 2.33363
thorax -9.53348 3.93705 -4.45536
lowerneck -5.02321 0.601084 -2.19725
upperneck -19.0347 0.140227 -5.09563
head -4.90579 0.508257 -1.22741
rclavicle 3.18055e-015 -4.77083e-015
rhumerus 42.4429 22.0864 -35.1476
rradius 34.537
rwrist -13.4366
rhand -22.0718 18.8311
rfingers 7.12502
rthumb 4.33948 -11.1044
lclavicle 3.18055e-015 -4.77083e-015
lhumerus -15.3615 14.3938 16.1749
lradius 35.2504
lwrist -12.0649
lhand 10.9426 58.9826
lfingers 7.12502
lthumb 36.0199 -634.706
rfemur -90.1707 -18.094 22.6459
rtibia 75.0056
rfoot -15.4371 -13.2454
rtoes -5.54145
lfemur -76.6063 20.6991 -17.5649
ltibia 51.1395
lfoot 2.01477 18.5259
ltoes -1.21572
970
root 11.8751 13.624 -12.5224 -148.05 -161.745 -173.161
lowerback 37.0715 5.36949 7.41279
upperback 6.82022 9.50183 2.44837
thorax -9.91343 4.064 -4.92228
lowerneck -3.33383 0.421718 -1.39761
upperneck -20.3736 -0.270632 -5.35379
head -5.60622 0.317466 -1.44648
rclavicle -8.26944e-014 -3.49861e-014
rhumerus 42.4125 22.0326 -36.1581
rradius 33.6222
rwrist -12.596
rhand -21.4327 19.1536
rfingers 7.12502
rthumb 4.95656 -10.7684
lclavicle -8.26944e-014 -3.49861e-014
lhumerus -14.5932 10.8809 17.4593
lradius 36.2758
lwrist -12.0472
lhand 11.5905 57.7828
lfingers 7.12502
lthumb 36.6332 -636.059
rfemur -91.7414 -18.0794 23.0036
rtibia 75.4709
rfoot -15.088 -13.3531
rtoes -8.2946
lfemur -79.2523 21.1483 -18.3594
ltibia 52.7291
lfoot 0.75821 17.7386
ltoes -0.390562
971
root 11.9957 13.5589 -12.4644 -146.735 -162.172 -173.816
lowerback 37.4636 5.37335 8.41892
upperback 6.61865 9.9339 2.54103
thorax -10.0869 4.20848 -5.51989
lowerneck -1.27935 0.0530605 -0.655695
upperneck -22.0913 -0.92658 -5.466
head -6.51673 0.00970041 -1.59987
rclavicle -7.63333e-014 -9.54166e-015
rhumerus 41.8567 21.728 -37.3102
rradius 32.9976
rwrist -11.3705
rhand -20.6356 19.6324
rfingers 7.12502
rthumb 5.72616 -10.2703
lclavicle -7.63333e-014 -9.54166e-015
lhumerus -13.7102 7.41161 18.6689
lradius 37.4135
lwrist -12.3725
lhand 11.815 55.2434
lfingers 7.12502
lthumb 36.8457 -638.652
rfemur -93.0107 -18.1887 23.356
rtibia 75.8676
rfoot -15.2277 -13.1338
rtoes -8.60835
lfemur -81.7729 21.426 -19.0345
ltibia 54.2811
lfoot -0.0804528 16.9408
ltoes -1.58492
972
root 12.1105 13.5069 -12.3962 -145.62 -162.456 -174.073
lowerback 37.9838 5.44868 9.23504
upperback 6.41999 10.3839 2.47588
thorax -10.2906 4.36044 -6.20427
lowerneck 1.24014 -0.446691 0.12999
upperneck -24.2607 -1.77004 -5.59935
head -7.69984 -0.379213 -1.75165
rclavicle 1.27222e-014 0
rhumerus 40.7099 21.159 -38.9696
rradius 32.5942
rwrist -10.3362
rhand -20.8553 20.5595
rfingers 7.12502
rthumb 5.51402 -9.34879
lclavicle 1.27222e-014 0
lhumerus -12.5375 3.84208 19.7024
lradius 38.5558
lwrist -12.5452
lhand 11.2019 51.0936
lfingers 7.12502
lthumb 36.2654 -642.656
rfemur -94.1342 -18.4151 23.2207
rtibia 76.2243
rfoot -14.7867 -13.8608
rtoes -11.5148
lfemur -84.1902 21.6033 -20.226
ltibia 55.7496
lfoot -0.591523 16.0438
ltoes -2.54367
973
root 12.2105 13.4543 -12.3369 -144.562 -162.624 -174.003
lowerback 38.7313 5.67282 9.68891
upperback 6.10199 10.9089 2.29258
thorax -10.7292 4.52784 -6.89795
lowerneck 3.61592 -0.981257 1.19919
upperneck -26.1425 -2.59964 -5.82986
head -8.81722 -0.78826 -1.96897
rclavicle 4.13472e-014 9.54166e-015
rhumerus 39.5144 20.3998 -40.4329
rradius 32.2502
rwrist -9.80148
rhand -21.5576 21.6482
rfingers 7.12502
rthumb 4.83596 -8.27662
lclavicle 4.13472e-014 9.54166e-015
lhumerus -11.0935 -0.0295697 20.3641
lradius 39.659
lwrist -12.4267
lhand 9.71358 46.0862
lfingers 7.12502
lthumb 34.8546 -647.324
rfemur -95.3779 -18.6314 22.7459
rtibia 76.5915
rfoot -14.0645 -14.8081
rtoes -14.5886
lfemur -86.6396 21.6982 -21.8563
ltibia 57.0571
lfoot -0.713033 15.0599
ltoes -4.32803
974
root 12.3037 13.3877 -12.2846 -143.127 -162.748 -174.03
lowerback 39.0514 6.13354 10.1471
upperback 5.71386 11.697 2.08293
thorax -11.0399 4.82045 -7.69447
lowerneck 5.76242 -1.71307 2.38539
upperneck -27.642 -3.61116 -5.97659
head -9.82286 -1.31774 -2.14174
rclavicle -1.04958e-013 1.11319e-014
rhumerus 37.4074 19.103 -42.3485
rradius 32.1203
rwrist -8.09068
rhand -21.9094 21.9791
rfingers 7.12502
rthumb 4.49622 -7.95321
lclavicle -1.04958e-013 1.11319e-014
lhumerus -9.0808 -3.74918 20.8608
lradius 40.608
lwrist -12.3363
lhand 8.31387 41.4381
lfingers 7.12502
lthumb 33.5254 -651.674
rfemur -97.0554 -18.6393 22.4157
rtibia 76.9677
rfoot -13.3557 -15.5347
rtoes -16.5712
lfemur -89.4751 21.7954 -23.5327
ltibia 58.2218
lfoot -0.105075 14.0957
ltoes -9.95657
975
root 12.3898 13.3355 -12.2225 -142.111 -162.893 -173.765
lowerback 39.6534 6.56694 10.6979
upperback 5.37001 12.5016 1.76945
thorax -11.3366 5.11255 -8.67223
lowerneck 7.84433 -2.66088 3.77305
upperneck -28.9261 -4.85681 -6.16451
head -10.8139 -1.9794 -2.31366
rclavicle -6.36111e-015 8.11041e-014
rhumerus 35.9237 18.4844 -41.7755
rradius 32.2628
rwrist -8.54226
rhand -21.7344 21.6496
rfingers 7.12502
rthumb 4.66519 -8.27907
lclavicle -6.36111e-015 8.11041e-014
lhumerus -6.5506 -7.12651 21.2102
lradius 41.6038
lwrist -11.9768
lhand 7.51703 38.4827
lfingers 7.12502
lthumb 32.7677 -654.468
rfemur -98.2631 -18.8932 21.6993
rtibia 77.3321
rfoot -12.6986 -16.3089
rtoes -17.7356
lfemur -91.6648 21.6593 -25.3297
ltibia 59.1745
lfoot 0.315173 13.1919
ltoes -15.659
